<?xml version="1.0" encoding="UTF-8"?>
<svg width="720px" height="720px" viewBox="0 0 720 720" version="1.1" xmlns="http://www.w3.org/2000/svg" xmlns:xlink="http://www.w3.org/1999/xlink">
    <title>Constellation</title>
    <g id="Constellation" stroke="none" stroke-width="1" fill="none" fill-rule="evenodd">
        <g id="easeness-kite" transform="translate(360.000000, 360.000000) scale(-1, 1) translate(-360.000000, -360.000000) " fill-rule="nonzero" stroke-width="0.5">
            <path d="M384.791734,45.29924 C368.639043,72.9957777 346.354553,101.312085 322.823775,127.323721 C299.292997,153.336915 274.538925,176.967577 253.35356,194.895737 C250.845654,197.018214 248.399066,199.044144 246,201 C359.113293,198.088017 445.062717,184.798787 510,167.47794 C484.45186,111.963402 450.270148,55.5721546 405.124779,0 C400.938293,14.8246396 393.733429,29.9653928 384.791734,45.29924 Z" id="Path" stroke="#3F7476" fill="#3F7476"></path>
            <path d="M445.003061,6.00312929 C483.721008,57.4924695 513.846531,109.590457 536.98363,161 C568.749887,151.056681 594.727659,140.210561 615.784761,129.447367 C651.285524,111.300614 672.976267,93.4292377 685.668995,80.453636 C686.526095,79.5774348 687.230141,78.8029355 688,77.9846261 C649.843759,72.7900044 557.696362,56.0639486 445,6 L445.003061,6.00312929 Z" id="Path" stroke="#76CED1" fill="#76CED1"></path>
            <path d="M707.621242,97 C706.900182,97.7633202 706.172985,98.5328972 705.4059,99.3118592 C690.513706,114.495362 666.230854,134.169629 628.175754,153.570163 C606.290811,164.727465 579.834039,175.794044 548,185.906473 C578.273788,260.402148 599.511311,359.64942 604.482023,433.901083 C610.483699,531.255697 598.038507,612.893422 584.165003,667 C593.773513,654.413037 603.810057,639.263946 613.651761,621.943772 C637.910066,579.241636 661.847729,523.760142 680.805475,462.115777 C715.944117,347.84924 733.545656,212.478777 707.619708,97 L707.621242,97 Z" id="Path" stroke="#C242BC" fill="#C242BC"></path>
            <path d="M522.119078,194 C451.790689,213.294921 358.396096,227.71374 234.725866,230.022814 C282.25785,275.51174 328.833278,330.327639 371.418453,386.652174 C331.091304,433.666934 287.456062,477.314228 244.251578,515.753989 C238.401865,520.959959 232.56135,526.059621 226.73923,531.070173 L214.353045,503.708342 L179.881741,507.613602 L183.709501,542.770318 L206.883011,547.835586 C187.733478,563.697381 168.911996,578.402293 150.751213,591.812748 L143.206064,565.848557 L108.541609,564.657281 L107.373506,600.012543 L128.331912,607.946567 C119.031542,614.465755 109.948851,620.619118 101.162018,626.340996 C91.803397,632.438078 82.7666942,638.03176 74.090233,643.16269 L74.4550736,618.993229 L41.7205947,607.294648 L30.2511102,640.67852 L50.311211,656.518427 C29.6501963,667.452529 12.2942082,674.767464 0,677.90199 L6.69436497,705.19816 C12.3110705,703.766127 18.3524015,701.80568 24.7524413,699.385608 L24.5286315,698.475735 C28.2306905,697.531469 32.4493514,696.130704 37.0834401,694.337536 C45.0792743,690.830932 53.5932433,686.661465 62.5410355,681.916684 L62.145536,708.306108 L94.880015,720 L106.352565,686.619255 L84.6874726,669.51303 C94.6853311,663.63169 105.132342,657.146896 116.01011,650.0649 C119.494491,647.794909 123.030992,645.443624 126.590488,643.054818 C134.009935,637.880115 141.63633,632.373981 149.420618,626.597386 L157.624932,654.831568 L192.292453,656.022844 L193.460556,620.667582 L169.276837,611.517268 C188.453962,596.61381 208.435883,580.128237 228.79644,562.313812 L241.167296,589.653756 L275.643199,585.748496 L271.810839,550.59178 L247.844798,545.351416 C254.707787,539.135518 261.595303,532.794553 268.498148,526.305068 C365.640788,434.967645 465.056783,317.315839 524,198.625966 C523.374559,197.084498 522.758316,195.546158 522.119078,194 L522.119078,194 Z" id="Path" stroke="#511BD9" fill="#511BD9"></path>
            <path d="M537.015384,233 C500.688485,300.53897 452.993681,366.425807 401,426.97955 C417.568655,450.070344 433.372178,473.097053 448.155523,495.518866 C481.337389,545.864393 509.455245,593.036948 530.086171,630.965684 C539.565826,648.393583 547.24788,663.247154 553.261393,676 C567.596106,626.529775 584.000366,539.502819 577.558195,435.205831 C573.711022,372.907735 561.90524,304.262132 537.012311,233 L537.015384,233 Z" id="Path" stroke="#880082" fill="#880082"></path>
        </g>
    </g>
</svg>