<?xml version="1.0" encoding="UTF-8"?>
<svg width="720px" height="720px" viewBox="0 0 720 720" version="1.1" xmlns="http://www.w3.org/2000/svg" xmlns:xlink="http://www.w3.org/1999/xlink">
    <title>Easeness</title>
    <g id="Easeness" stroke="none" stroke-width="1" fill="none" fill-rule="evenodd">
        <g id="easeness-kite" transform="translate(360.000000, 360.000000) scale(-1, 1) translate(-360.000000, -360.000000) translate(49.000000, 49.000000)" fill-rule="nonzero" stroke-width="0.5">
            <path d="M332.865588,39.2142675 C318.915537,63.1903747 299.669841,87.702999 279.347805,110.220535 C259.02577,132.739419 237.647253,153.195813 219.350802,168.715712 C217.184883,170.553081 215.071921,172.306871 213,174 C310.688753,171.479179 384.917801,159.975069 441,144.980903 C418.935697,96.9235418 389.415127,48.1072383 350.425945,0 C346.810344,12.8332701 340.587962,25.9401907 332.865588,39.2142675 Z" id="Path" stroke="#3F7476" fill="#3F7476"></path>
            <path d="M384.002645,5.00270532 C417.4626,49.5160704 443.497002,94.5556206 463.492026,139 C490.944346,130.40384 513.394273,121.027195 531.591769,111.72224 C562.27144,96.034079 581.016527,80.5839861 591.985551,69.3663692 C592.726255,68.6088791 593.33469,67.939312 594,67.2318703 C561.025471,62.7410361 481.391918,48.281091 384,5 L384.002645,5.00270532 Z" id="Path" stroke="#76CED1" fill="#76CED1"></path>
            <path d="M611.276541,84 C610.651902,84.6588659 610.021946,85.3231323 609.357436,85.9954995 C596.456641,99.1012601 575.420915,116.083258 542.454577,132.828983 C523.496109,142.459496 500.577162,152.011701 473,160.740324 C499.225549,225.041854 517.62317,310.707921 521.929195,374.79883 C527.12832,458.831233 516.347311,529.29748 504.328985,576 C512.652636,565.135464 521.347084,552.059406 529.872746,537.109361 C550.887208,500.250675 571.623905,452.361386 588.046603,399.152565 C618.486474,300.522502 633.734318,183.676418 611.275212,84 L611.276541,84 Z" id="Path" stroke="#C242BC" fill="#C242BC"></path>
            <path d="M451.373936,168 C390.574775,184.653791 309.834793,197.098931 202.921407,199.091935 C244.012989,238.354239 284.277624,285.666821 321.09267,334.281535 C286.229696,374.860814 248.506863,412.533573 211.156422,445.711618 C206.099322,450.204984 201.050175,454.606593 196.01693,458.93129 L185.309026,435.314805 L155.508452,438.685504 L158.817565,469.029894 L178.851152,473.401818 C162.296309,487.092416 146.025065,499.784489 130.324999,511.359292 L123.802189,488.949135 L93.8346352,487.920923 L92.8248056,518.436681 L110.943427,525.284679 C102.903223,530.911507 95.0512015,536.222585 87.4549508,541.16124 C79.3643871,546.42374 71.552123,551.251748 64.0512893,555.680345 L64.3666953,534.819251 L36.0676133,524.721996 L26.1522002,553.536213 L43.4942339,567.20792 C25.6327079,576.645338 10.6283899,582.95899 0,585.664455 L5.78730407,609.224267 C10.6429675,607.988254 15.8657212,606.296158 21.39858,604.20735 L21.2050956,603.422022 C24.4055397,602.60701 28.0525882,601.397984 32.0587755,599.850269 C38.9712046,596.823656 46.3315634,593.224915 54.0669639,589.12961 L53.7250531,611.906793 L82.0241351,622 L91.9421987,593.188482 L73.2126433,578.423794 C81.8558302,573.347505 90.8873111,567.750363 100.291183,561.637765 C103.303444,559.678496 106.360762,557.64906 109.43796,555.587239 C115.8521,551.12086 122.445148,546.368417 129.174694,541.382534 L136.267355,565.751962 L166.237559,566.780173 L167.247389,536.264415 L146.340471,528.366616 C162.919169,515.503174 180.193616,501.274181 197.795396,485.898233 L208.490048,509.495827 L238.294597,506.125128 L234.981508,475.780738 L214.262774,471.257686 C220.195854,465.892634 226.150138,460.419633 232.117674,454.818443 C316.097857,375.983481 402.043364,274.436105 453,171.992754 C452.459304,170.662286 451.926559,169.334516 451.373936,168 L451.373936,168 Z" id="Path" stroke="#511BD9" fill="#511BD9"></path>
            <path d="M463.676231,201 C432.247341,259.39148 390.983297,316.354591 346,368.706925 C360.334679,388.670297 374.00739,408.578265 386.797475,427.963263 C415.505382,471.489983 439.832066,512.273479 457.681294,545.06514 C465.882793,560.132601 472.529065,572.974402 477.731767,584 C490.13371,541.230032 504.326159,465.990022 498.752595,375.819037 C495.424142,321.958606 485.210152,262.610376 463.673572,201 L463.676231,201 Z" id="Path" stroke="#880082" fill="#880082"></path>
        </g>
    </g>
</svg>