<?xml version="1.0" encoding="UTF-8"?>
<svg width="720px" height="720px" viewBox="0 0 720 720" version="1.1" xmlns="http://www.w3.org/2000/svg" xmlns:xlink="http://www.w3.org/1999/xlink" style="background: #FFFFFF;">
    <title>Constellation</title>
    <g id="Constellation" stroke="none" stroke-width="1" fill="none" fill-rule="evenodd">
        <rect fill="#FFFFFF" x="0" y="0" width="720" height="720"></rect>
        <g id="easeness-kite" transform="translate(360.000000, 360.001107) scale(-1, 1) translate(-360.000000, -360.001107) translate(100.000000, 105.002214)" fill-rule="nonzero" stroke-width="0.5">
            <path d="M278.243649,32.2053288 C266.587246,51.8960809 250.505902,72.0274559 233.525188,90.5203336 C216.544475,109.014318 198.680986,125.814451 183.392812,138.56041 C181.583011,140.069378 179.817459,141.509706 178.086201,142.900214 C259.713099,140.829951 321.737506,131.382021 368.598744,119.067828 C350.162225,79.5999705 325.495388,39.5088198 292.916755,0 C289.895626,10.5395232 284.69632,21.3037863 278.243649,32.2053288 Z" id="Path" stroke="#3F7476" fill="#3F7476"></path>
            <path d="M321.447672,3.89253819 C349.43211,40.3247472 371.206141,77.1876153 387.929102,113.563363 C410.889018,106.527788 429.665151,98.8534209 444.884738,91.2377297 C470.543868,78.3976677 486.221437,65.7524541 495.395447,56.5713337 C496.014939,55.9513617 496.523807,55.4033508 497.080243,54.8243413 C469.501795,51.1487933 402.899786,39.3139715 321.44546,3.89032401 L321.447672,3.89253819 Z" id="Path" stroke="#76CED1" fill="#76CED1"></path>
            <path d="M511.074121,69.0250203 C510.554191,69.5652816 510.029835,70.1099712 509.476717,70.6613034 C498.73849,81.407853 481.228996,95.3328659 453.788827,109.064138 C438.008379,116.96103 418.931349,124.793712 395.976964,131.951066 C417.806308,184.677467 433.119924,254.922504 436.704127,307.476198 C441.03172,376.381652 432.057938,434.163038 422.054252,472.458484 C428.982604,463.549708 436.219596,452.827515 443.316096,440.568677 C460.807891,410.345044 478.068482,371.076463 491.738233,327.445937 C517.075448,246.570596 529.767287,150.758359 511.073015,69.0250203 L511.074121,69.0250203 Z" id="Path" stroke="#C242BC" fill="#C242BC"></path>
            <path d="M376.782674,137.509779 C326.030806,151.173518 258.633414,161.384235 169.387872,163.019411 C203.688913,195.232489 237.299664,234.050483 268.030883,273.936822 C238.929148,307.230423 207.440158,338.139346 176.262019,365.360543 C172.040624,369.047162 167.825868,372.658499 163.624385,376.206731 L154.686003,356.830393 L129.810088,359.595911 L132.572358,384.492213 L149.295318,388.079194 C135.476226,399.311757 121.893867,409.725072 108.788296,419.221714 L103.343406,400.835117 L78.3281043,399.991512 L77.4851529,425.028415 L92.6096034,430.646911 C85.8980732,435.263488 79.3436284,439.621005 73.0026871,443.672965 C66.2491199,447.990627 59.7278622,451.951805 53.4665698,455.585283 L53.7298538,438.469629 L30.1073029,430.185254 L21.8304495,453.826113 L36.3066461,465.043177 C21.3968053,472.786183 8.87200797,477.966271 0,480.185992 L4.83093003,499.515831 C8.88417656,498.501734 13.2438503,497.11344 17.8623831,495.39966 L17.7008728,494.755332 C20.3724313,494.086648 23.4167911,493.094693 26.7609408,491.824858 C32.5310647,489.341649 38.6750961,486.389032 45.1321922,483.029006 L44.8467835,501.716732 L68.4693344,509.997786 L76.7484002,486.359141 L61.1139751,474.245332 C68.3288425,470.080449 75.8678368,465.488228 83.7176832,460.473098 C86.2321563,458.865599 88.7842414,457.200531 91.35292,455.508894 C96.7070994,451.844417 102.210621,447.945236 107.828084,443.854528 L113.748656,463.848624 L138.76617,464.692228 L139.609121,439.655325 L122.157151,433.175511 C135.996156,422.621596 150.415935,410.947302 165.108953,398.33198 L174.036273,417.692819 L198.915507,414.927301 L196.149919,390.030999 L178.855035,386.320024 C183.807651,381.918223 188.777966,377.427854 193.759344,372.832312 C263.861482,308.151524 335.604167,224.83615 378.140025,140.785667 C377.688681,139.694073 377.243974,138.604694 376.782674,137.509779 L376.782674,137.509779 Z" id="Path" stroke="#511BD9" fill="#511BD9"></path>
            <path d="M387.640374,165.505941 C361.484544,213.34342 327.143679,260.010702 289.707566,302.900583 C301.637209,319.255665 313.015946,335.565355 323.660143,351.446601 C347.551509,387.106059 367.796724,420.518119 382.651253,447.382833 C389.476725,459.726917 395.007902,470.24762 399.337708,479.28039 C409.658884,444.240903 421.470159,382.600192 416.831714,308.727212 C414.061701,264.601816 405.561388,215.980515 387.638162,165.505941 L387.640374,165.505941 Z" id="Path" stroke="#880082" fill="#880082"></path>
        </g>
    </g>
</svg>