<?xml version="1.0" encoding="UTF-8"?>
<svg width="512px" height="512px" viewBox="0 0 512 512" version="1.1" xmlns="http://www.w3.org/2000/svg" xmlns:xlink="http://www.w3.org/1999/xlink">
    <title>Icon Template 512pt</title>
    <defs>
        <linearGradient x1="77.1009781%" y1="87.9029603%" x2="19.3631905%" y2="6.71708161%" id="linearGradient-1">
            <stop stop-color="#76CED1" offset="0%"></stop>
            <stop stop-color="#073B75" offset="42.0589498%"></stop>
            <stop stop-color="#301378" offset="100%"></stop>
        </linearGradient>
        <linearGradient x1="139.765952%" y1="10.9341466%" x2="5.60187265e-14%" y2="131.146472%" id="linearGradient-2">
            <stop stop-color="#73ACAE" offset="0%"></stop>
            <stop stop-color="#3F7476" offset="100%"></stop>
        </linearGradient>
        <linearGradient x1="116.351941%" y1="22.2348353%" x2="14.809429%" y2="81.9705044%" id="linearGradient-3">
            <stop stop-color="#AEE9EA" offset="0%"></stop>
            <stop stop-color="#76CED1" offset="100%"></stop>
        </linearGradient>
        <linearGradient x1="56.2944657%" y1="24.9054295%" x2="47.657694%" y2="54.6192998%" id="linearGradient-4">
            <stop stop-color="#E377DF" offset="0%"></stop>
            <stop stop-color="#C242BC" offset="100%"></stop>
        </linearGradient>
        <linearGradient x1="113.910465%" y1="-5.88989146%" x2="7.73714664%" y2="100%" id="linearGradient-5">
            <stop stop-color="#893AEE" offset="0%"></stop>
            <stop stop-color="#5931BB" stop-opacity="0.712412587" offset="100%"></stop>
        </linearGradient>
        <linearGradient x1="73.2662217%" y1="-3.59934368%" x2="45.520504%" y2="94.1466827%" id="linearGradient-6">
            <stop stop-color="#BD00B8" offset="0%"></stop>
            <stop stop-color="#880082" offset="100%"></stop>
        </linearGradient>
    </defs>
    <g id="Icon-Template-512pt" stroke="none" stroke-width="1" fill="none" fill-rule="evenodd">
        <g id="Template">
            <rect id="BG" fill="url(#linearGradient-1)" x="0" y="0" width="512" height="512"></rect>
            <g id="Easeness-fav" transform="translate(99.000000, 63.000000)" fill-rule="nonzero">
                <g id="easeness-kite" transform="translate(203.500000, 203.500000) scale(-1, 1) translate(-203.500000, -203.500000) ">
                    <path d="M217.807547,25.6594966 C208.679459,41.3480426 196.086214,57.3876537 182.788676,72.121797 C169.491139,86.8568224 155.502302,100.242276 143.530187,110.39758 C142.112938,111.599846 140.730341,112.747422 139.374598,113.855305 C203.296338,112.205829 251.867436,104.67822 288.564309,94.8669253 C274.126734,63.4210314 254.81022,31.4785305 229.298006,0 C226.93217,8.39733269 222.860612,16.9737261 217.807547,25.6594966 Z" id="Path" stroke="#3F7476" fill="url(#linearGradient-2)"></path>
                    <path d="M251.268612,3.27347438 C273.162827,32.4003869 290.198199,61.8716038 303.28176,90.9533762 C321.244934,85.3285577 335.934838,79.193036 347.842203,73.1044239 C367.917164,62.8390195 380.18284,52.7293928 387.36032,45.389248 C387.844993,44.8935913 388.243117,44.4554662 388.678457,43.9925582 C367.101876,41.054022 314.99439,31.5922894 251.266881,3.27170418 L251.268612,3.27347438 Z" id="Path" stroke="#76CED1" fill="url(#linearGradient-3)"></path>
                    <path d="M399.983203,54.9646302 C399.574476,55.3957531 399.16227,55.8304097 398.727454,56.270367 C390.285937,64.8460014 376.521403,75.9580161 354.950181,86.9154278 C342.544882,93.2170657 327.548079,99.4674635 309.503215,105.178958 C326.663663,147.254075 338.701978,203.308881 341.519586,245.24618 C344.921586,300.232013 337.867131,346.340956 330.00305,376.900322 C335.449554,369.791212 341.138687,361.235013 346.717376,351.452588 C360.467996,327.334445 374.036864,295.998527 384.782906,261.181823 C404.700957,196.644145 414.678244,120.186981 399.982333,54.9646302 L399.983203,54.9646302 Z" id="Path" stroke="#C242BC" fill="url(#linearGradient-4)"></path>
                    <path d="M295.352399,109.92926 C255.569025,120.826516 202.737558,128.969879 132.779763,130.273983 C159.667663,155.964912 186.014458,186.923466 210.104046,218.734059 C187.291779,245.286738 162.608189,269.937563 138.16827,291.647313 C134.859203,294.587506 131.55534,297.467658 128.261882,300.297484 L121.255263,284.844253 L101.755531,287.049839 L103.920818,306.905413 L117.029612,309.766141 C106.197103,318.724459 95.5501631,327.0294 85.2769688,334.603267 L81.0088279,319.939386 L61.3998337,319.266585 L60.7390609,339.234291 L72.5948148,343.715216 C67.333781,347.397079 62.1958827,350.872335 57.2253456,354.103898 C51.9313594,357.547367 46.819476,360.70653 41.9113742,363.604342 L42.1177572,349.954076 L23.6005122,343.34703 L17.1124525,362.201348 L28.4600534,371.147305 C16.7725275,377.322593 6.95458953,381.453873 0,383.224169 L3.78686938,398.640316 C6.96412825,397.831542 10.3815893,396.724335 14.0019647,395.357543 L13.87536,394.84367 C15.9695413,394.310375 18.355954,393.51926 20.977366,392.506527 C25.5004506,390.52609 30.3166339,388.171287 35.3782224,385.491562 L35.1544962,400.395602 L53.6717411,407 L60.1615352,388.147447 L47.9060222,378.486309 C53.5616124,375.164686 59.4712791,371.502247 65.6246165,367.502525 C67.5956619,366.220495 69.5961899,364.892552 71.6097262,363.543418 C75.80676,360.620884 80.1208605,357.511167 84.5242773,354.2487 L89.165295,370.194612 L108.776023,370.867412 L109.436796,350.899706 L95.7565462,345.731853 C106.604665,337.314778 117.908041,328.004167 129.425605,317.943056 L136.423552,333.383925 L155.925886,331.178339 L153.757996,311.322766 L140.200883,308.363148 C144.083139,304.852576 147.97927,301.271368 151.884073,297.60628 C206.835736,246.021345 263.073391,179.57475 296.416399,112.541882 C296.062599,111.671303 295.714002,110.802489 295.352399,109.92926 L295.352399,109.92926 Z" id="Path" fill="url(#linearGradient-5)"></path>
                    <path d="M303.402293,131.522508 C282.837087,169.730438 255.836337,207.003728 226.401929,241.259998 C235.781695,254.322847 244.728308,267.349443 253.097383,280.033839 C271.882139,308.51515 287.800082,335.201457 299.479561,356.658379 C304.846136,366.517634 309.195063,374.920549 312.599404,382.135048 C320.714502,354.148912 330.001201,304.916301 326.35419,245.913743 C324.176247,210.670663 317.492817,171.836693 303.400553,131.522508 L303.402293,131.522508 Z" id="Path" stroke="#880082" fill="url(#linearGradient-6)"></path>
                </g>
            </g>
        </g>
    </g>
</svg>